<?xml version="1.0" encoding="UTF-8" standalone="no"?>
<svg
   width="856.385"
   height="559.94"
   viewBox="0 0 856.385 559.94"
   version="1.1"
   id="svg35"
   sodipodi:docname="online-request.svg"
   inkscape:version="1.1.1 (3bf5ae0d25, 2021-09-20)"
   xmlns:inkscape="http://www.inkscape.org/namespaces/inkscape"
   xmlns:sodipodi="http://sodipodi.sourceforge.net/DTD/sodipodi-0.dtd"
   xmlns="http://www.w3.org/2000/svg"
   xmlns:svg="http://www.w3.org/2000/svg">
  <defs
     id="defs39" />
  <sodipodi:namedview
     id="namedview37"
     pagecolor="#505050"
     bordercolor="#eeeeee"
     borderopacity="1"
     inkscape:pageshadow="0"
     inkscape:pageopacity="0"
     inkscape:pagecheckerboard="0"
     showgrid="false"
     inkscape:zoom="0.25319661"
     inkscape:cx="444.31875"
     inkscape:cy="179.70225"
     inkscape:window-width="1920"
     inkscape:window-height="991"
     inkscape:window-x="-9"
     inkscape:window-y="-9"
     inkscape:window-maximized="1"
     inkscape:current-layer="svg35" />
  <g
     id="g1048">
    <rect
       id="Rectangle_113"
       data-name="Rectangle 113"
       width="94.643997"
       height="1.803"
       fill="#cccccc"
       x="411.02701"
       y="36.956001" />
    <rect
       id="Rectangle_114"
       data-name="Rectangle 114"
       width="300.15799"
       height="1.803"
       fill="#cccccc"
       x="36.956001"
       y="36.956001" />
    <circle
       id="Ellipse_115"
       data-name="Ellipse 115"
       cx="36.956001"
       cy="37.857002"
       r="36.956001"
       fill="#66fcf1"
       style="fill:#1ab4f7;fill-opacity:1" />
    <circle
       id="Ellipse_116"
       data-name="Ellipse 116"
       cx="205.513"
       cy="37.857002"
       r="36.956001"
       fill="#3f3d56" />
    <path
       id="Path_748-280"
       data-name="Path 748"
       d="m 374.066,75.716 a 37.858,37.858 0 1 1 37.858,-37.858 37.858,37.858 0 0 1 -37.858,37.858 z m 0,-73.913 A 36.055,36.055 0 1 0 410.121,37.858 36.055,36.055 0 0 0 374.066,1.803 Z"
       fill="#cccccc" />
    <path
       id="Path_749-281"
       data-name="Path 749"
       d="m 542.623,75.716 a 37.858,37.858 0 1 1 37.858,-37.858 37.858,37.858 0 0 1 -37.858,37.858 z m 0,-73.913 A 36.055,36.055 0 1 0 578.678,37.858 36.055,36.055 0 0 0 542.623,1.803 Z"
       fill="#cccccc" />
    <path
       id="Path_395-282"
       data-name="Path 395"
       d="m 34.111,48.876 a 2.993,2.993 0 0 1 -1.8,-0.6 l -0.032,-0.024 -6.783,-5.188 a 3.0141699,3.0141699 0 0 1 3.668,-4.784 l 4.393,3.369 10.381,-13.544 a 3.013,3.013 0 0 1 4.224,-0.558 v 0 l -0.064,0.089 0.066,-0.089 a 3.016,3.016 0 0 1 0.557,4.225 L 36.51,47.695 a 3.015,3.015 0 0 1 -2.4,1.175 z"
       fill="#ffffff" />
    <g
       id="Group_24"
       data-name="Group 24"
       transform="translate(636.265)">
      <path
         id="Path_552-283"
         data-name="Path 552"
         d="m 314.19,545.413 a 14.214,14.214 0 0 1 1.987,1.108 l 63.154,-26.954 2.253,-16.636 25.235,-0.155 -1.491,38.158 -83.357,22.047 a 14.939,14.939 0 0 1 -0.631,1.7 14.411,14.411 0 1 1 -7.151,-19.265 z"
         transform="translate(-293.875,-349.453)"
         fill="#feb8b8" />
      <path
         id="Path_553-284"
         data-name="Path 553"
         d="m 312.83,797.912 h -17.263 l -8.212,-66.584 h 25.477 z"
         transform="translate(-190.709,-256.191)"
         fill="#feb8b8" />
      <path
         id="Path_554-285"
         data-name="Path 554"
         d="m 305.692,775.115 h 33.292 V 796.07 H 284.73 a 20.962,20.962 0 0 1 20.962,-20.962 v 0 z"
         transform="translate(-213.164,-238.326)"
         fill="#2f2e41" />
      <path
         id="Path_555-286"
         data-name="Path 555"
         d="m 271.557,794.354 -17.178,1.69 -14.7,-65.458 25.355,-2.491 z"
         transform="translate(-82.3,-257.51)"
         fill="#feb8b8" />
      <path
         id="Path_556-287"
         data-name="Path 556"
         d="m 254.863,774.674 33.126,-3.263 2.054,20.857 -53.981,5.317 a 20.958,20.958 0 0 1 18.8,-22.911 z"
         transform="translate(-95.55,-239.834)"
         fill="#2f2e41" />
      <circle
         id="Ellipse_84"
         data-name="Ellipse 84"
         cx="34.583"
         cy="34.583"
         transform="translate(92.343,13.688)"
         fill="#feb8b8"
         r="34.583" />
      <path
         id="Path_557-288"
         data-name="Path 557"
         d="m 281.584,839.584 a 6.3,6.3 0 0 1 -6.217,-5.21 c -8.929,-49.59 -38.141,-211.772 -38.84,-216.268 a 1.991,1.991 0 0 1 -0.023,-0.312 V 605.7 a 2.1,2.1 0 0 1 0.393,-1.228 l 3.858,-5.4 a 2.082,2.082 0 0 1 1.611,-0.88 c 22,-1.031 94.036,-4.054 97.516,0.294 v 0 c 3.495,4.365 2.253,17.611 1.971,20.22 l 0.014,0.272 32.366,206.982 A 6.353,6.353 0 0 1 369,833.19 l -20.214,3.33 a 6.366,6.366 0 0 1 -7.076,-4.355 c -6.252,-19.978 -27.216,-87.184 -34.482,-113.19 a 0.7,0.7 0 0 0 -1.381,0.2 c 0.363,24.79 1.24,88.036 1.549,109.881 l 0.032,2.353 a 6.362,6.362 0 0 1 -5.763,6.387 l -19.492,1.766 a 5.871,5.871 0 0 1 -0.589,0.022 z"
         transform="translate(-180.584,-311.329)"
         fill="#2f2e41" />
      <path
         id="Path_99-289"
         data-name="Path 99"
         d="m 296.727,463.319 c -6.035,3.588 -9.647,10.18 -11.719,16.9 a 160.072,160.072 0 0 0 -6.877,38.242 l -2.191,38.859 -27.113,103.028 c 23.5,19.883 37.053,15.363 68.686,-0.9 31.633,-16.263 35.247,5.422 35.247,5.422 l 6.325,-87.663 9.037,-95.793 a 42.485,42.485 0 0 0 -6.846,-6.581 69.923,69.923 0 0 0 -59.761,-12.673 z"
         transform="translate(-191.749,-366.866)"
         fill="#e6e6e6" />
      <path
         id="Path_558-290"
         data-name="Path 558"
         d="m 259.825,562.029 a 14.828,14.828 0 0 1 2.112,0.986 l 62.447,-31.259 1.036,-16.933 25.759,-1.776 1.38,38.6 -83.45,27.6 a 14.784,14.784 0 1 1 -9.283,-17.223 z"
         transform="translate(-163.653,-345.262)"
         fill="#feb8b8" />
      <path
         id="Path_101-291"
         data-name="Path 101"
         d="m 269.34,476.085 c 15.363,5.422 18.071,64.171 18.071,64.171 -18.075,-9.941 -39.765,6.326 -39.765,6.326 0,0 -4.518,-15.365 -9.941,-35.246 a 34.54,34.54 0 0 1 7.229,-32.535 c 0,0 9.041,-8.141 24.406,-2.716 z"
         transform="translate(-93.417,-361.105)"
         fill="#e6e6e6" />
      <path
         id="Path_102-292"
         data-name="Path 102"
         d="m 323.823,451.3 c -4.309,-3.447 -10.187,2.816 -10.187,2.816 L 310.189,423.1 c 0,0 -21.543,2.581 -35.334,-0.862 -13.791,-3.443 -15.943,12.5 -15.943,12.5 a 110.654,110.654 0 0 1 -0.431,-19.391 c 0.862,-7.756 12.064,-15.512 31.885,-20.683 19.821,-5.171 30.162,17.236 30.162,17.236 13.796,6.889 7.609,42.851 3.295,39.4 z"
         transform="translate(-165.894,-393.886)"
         fill="#2f2e41" />
    </g>
    <rect
       id="Rectangle_110"
       data-name="Rectangle 110"
       width="737.38501"
       height="2.1900001"
       fill="#e6e6e6"
       x="119"
       y="557.75" />
    <path
       id="Path_438-293"
       data-name="Path 438"
       d="m 190.135,519.076 a 19.474,19.474 0 0 0 18.806,-3.313 c 6.587,-5.528 8.652,-14.636 10.332,-23.07 l 4.97,-24.945 -10.405,7.165 c -7.483,5.152 -15.134,10.47 -20.316,17.933 -5.182,7.463 -7.443,17.651 -3.28,25.726"
       fill="#e6e6e6" />
    <path
       id="Path_439-294"
       data-name="Path 439"
       d="m 191.742,551.013 c -1.31,-9.542 -2.657,-19.206 -1.738,-28.85 0.816,-8.565 3.429,-16.93 8.749,-23.789 a 39.574,39.574 0 0 1 10.153,-9.2 c 1.015,-0.641 1.95,0.968 0.939,1.606 a 37.622,37.622 0 0 0 -14.885,17.955 c -3.24,8.241 -3.76,17.224 -3.2,25.977 0.338,5.294 1.053,10.553 1.774,15.805 a 0.964,0.964 0 0 1 -0.65,1.144 0.936,0.936 0 0 1 -1.144,-0.65 z"
       fill="#f2f2f2" />
    <path
       id="Path_442-295"
       data-name="Path 442"
       d="m 201.169,535.703 a 14.336,14.336 0 0 0 12.491,6.447 c 6.323,-0.3 11.595,-4.713 16.34,-8.9 l 14.036,-12.392 -9.289,-0.444 c -6.68,-0.32 -13.533,-0.618 -19.9,1.442 -6.367,2.06 -12.231,7.018 -13.394,13.6"
       fill="#e6e6e6" />
    <path
       id="Path_443-296"
       data-name="Path 443"
       d="m 188.04,556.498 c 6.3,-11.156 13.618,-23.555 26.685,-27.518 a 29.779,29.779 0 0 1 11.224,-1.159 c 1.192,0.1 0.894,1.94 -0.3,1.837 a 27.665,27.665 0 0 0 -17.912,4.739 c -5.051,3.438 -8.983,8.217 -12.311,13.286 -2.039,3.1 -3.865,6.341 -5.691,9.573 -0.582,1.032 -2.282,0.287 -1.695,-0.758 z"
       fill="#f2f2f2" />
    <path
       id="Path_138-297"
       data-name="Path 138"
       d="M 632.419,234.597 H 316.73 a 5.853,5.853 0 0 1 -5.846,-5.846 v -78.309 a 5.853,5.853 0 0 1 5.846,-5.846 h 315.689 a 5.853,5.853 0 0 1 5.846,5.846 v 78.309 a 5.853,5.853 0 0 1 -5.846,5.846 z M 316.73,146.935 a 3.512,3.512 0 0 0 -3.508,3.508 v 78.309 a 3.511,3.511 0 0 0 3.508,3.508 h 315.689 a 3.511,3.511 0 0 0 3.508,-3.508 v -78.31 a 3.511,3.511 0 0 0 -3.508,-3.508 z"
       fill="#e6e6e6" />
    <path
       id="Path_139-298"
       data-name="Path 139"
       d="m 420.781,170.715 a 3.969,3.969 0 1 0 0,7.938 h 187.108 a 3.969,3.969 0 0 0 0,-7.938 z"
       fill="#e6e6e6" />
    <path
       id="Path_140-299"
       data-name="Path 140"
       d="m 420.781,194.53 a 3.969,3.969 0 1 0 0,7.938 h 80.513 a 3.969,3.969 0 1 0 0,-7.938 z"
       fill="#e6e6e6" />
    <circle
       id="Ellipse_18"
       data-name="Ellipse 18"
       cx="366.00601"
       cy="186.411"
       r="23.813999"
       fill="#e6e6e6" />
    <path
       id="Path_395-2-300"
       data-name="Path 395"
       d="m 362.263,199.646 a 3.689,3.689 0 0 1 -2.219,-0.738 l -0.04,-0.03 -8.358,-6.394 a 3.7161943,3.7161943 0 0 1 4.52,-5.9 l 5.414,4.151 12.793,-16.69 a 3.713,3.713 0 0 1 5.205,-0.688 v 0 l -0.079,0.11 0.082,-0.11 a 3.717,3.717 0 0 1 0.687,5.206 l -15.047,19.634 a 3.715,3.715 0 0 1 -2.954,1.448 z"
       fill="#66fcf1"
       style="fill:#1ab4f7;fill-opacity:1" />
  </g>
</svg>
