<?xml version="1.0" encoding="utf-8"?>
<!-- Generator: Adobe Illustrator 19.0.0, SVG Export Plug-In . SVG Version: 6.00 Build 0)  -->
<svg version="1.1" id="layer" xmlns="http://www.w3.org/2000/svg" xmlns:xlink="http://www.w3.org/1999/xlink" x="0px" y="0px"
	 viewBox="-153 -46 652 652" style="enable-background:new -153 -46 652 652;" xml:space="preserve">
<path d="M-42.4,292.8c0,14.5-14.9,25.6-41.9,25.6c-19.2,0-36.3-6-47-17.5l4.3-4.3c10.2,11.1,25.2,16.2,42.7,16.2
	c22.6,0,35.4-8.1,35.4-19.2c0-11.5-13.7-14.5-37.6-16.7c-21.4-2.1-42.3-6.4-42.3-22.2c0-14.9,19.6-23.5,41-23.5
	c17.9,0,32,6,40.6,14.5l-4.7,3.8c-8.1-9-20.9-12.8-35.4-12.8c-15.8,0-35,5.6-35,17.5c0,11.5,17.1,14.5,38,16.2
	C-59.5,272.8-42.4,277.5-42.4,292.8z M0.3,315.9v-82.4h6v82.4H0.3z M146.8,294.1c-6,14.1-22.6,24.3-45.7,24.3
	c-31.6,0-49.5-17.1-49.5-43.6s18.4-43.6,49.5-43.6c19.6,0,33.3,7.3,41.4,17.5l-5.1,3.8c-7.7-10.2-19.6-15.4-36.3-15.4
	c-26.5,0-43.1,13.2-43.1,38c0,24.3,17.1,38,43.6,38c18.4,0,33.3-6.4,39.7-20.1v-12.4h-40.6v-5.6h46.5v18.8H146.8z M413.7,291.6
	h-58.5l-13.7,24.3h-6.8l46.1-82.4h6.8l46.1,82.4h-6.8L413.7,291.6z M410.7,286l-26-47l-26,47H410.7z M294.9,315.9h-24.3l6-5.1h13.2
	v-51.2l-48.7,40.1L204,268.9v-6.8l37.2,30.7l53.8-44.4V315.9z M211.7,315.9h-23.5v-82l53,43.6l53.8-44.4v6.8l-53.8,44.4l-47.4-39.7
	v66.2h12L211.7,315.9z M468.8,248.4c0,9.4-6.8,15.8-16.7,15.8c-9.8,0-16.7-6.4-16.7-15.8c0-9.4,6.8-15.8,16.7-15.8
	C461.9,232.6,468.8,239,468.8,248.4z M467,248.4c0-8.5-6-14.1-14.9-14.1c-9.4,0-14.9,5.6-14.9,14.1s6,14.1,14.9,14.1
	C461.5,262.5,467,257,467,248.4z M455.5,250.1l6,6.4h-2.1l-5.6-6.4h-7.3v6.4h-1.7v-16.2h10.2c3.8,0,6,2.1,6,5.1
	C461.1,248,458.9,249.7,455.5,250.1z M454.2,248.9c3,0,4.7-1.3,4.7-3.4c0-2.6-1.7-3.4-4.7-3.4h-8.1v6.8H454.2z"/>
</svg>
