<?xml version="1.0" standalone="no"?>
<!DOCTYPE svg PUBLIC "-//W3C//DTD SVG 20010904//EN"
 "http://www.w3.org/TR/2001/REC-SVG-20010904/DTD/svg10.dtd">
<svg version="1.0" xmlns="http://www.w3.org/2000/svg"
 width="591.000000pt" height="591.000000pt" viewBox="0 0 591.000000 591.000000"
 preserveAspectRatio="xMidYMid meet">
<metadata>
Created by potrace 1.14, written by Peter Selinger 2001-2017
</metadata>
<g transform="translate(0.000000,591.000000) scale(0.100000,-0.100000)"
fill="#000000" stroke="none">
<path d="M1448 4732 c-86 -108 -184 -233 -217 -277 -33 -44 -82 -107 -110
-140 -91 -107 -286 -349 -331 -410 -66 -88 -275 -350 -341 -425 -31 -36 -87
-105 -124 -155 -127 -168 -269 -345 -277 -345 -11 0 -10 -37 0 -42 5 -1 60
-70 122 -153 103 -135 162 -210 378 -473 35 -42 95 -119 134 -171 95 -127 376
-478 417 -521 18 -19 41 -47 50 -61 9 -14 113 -148 231 -297 l215 -272 393 0
c215 0 392 2 392 5 0 3 -96 126 -213 273 -117 147 -249 314 -292 371 -44 58
-101 128 -126 155 -25 28 -107 130 -183 226 -249 318 -405 515 -433 545 -62
68 -303 378 -303 389 0 4 213 282 250 326 75 90 420 521 440 550 30 43 172
221 207 258 24 25 99 121 420 532 76 96 159 200 185 231 26 30 48 61 48 67 0
9 -98 12 -387 12 l-388 0 -157 -198z"/>
<path d="M3540 4918 c0 -6 22 -37 48 -67 26 -31 109 -135 185 -231 321 -411
396 -507 420 -532 35 -37 177 -215 207 -258 20 -29 365 -460 440 -550 37 -44
250 -322 250 -326 0 -12 -240 -320 -298 -382 -26 -29 -165 -203 -438 -552 -76
-96 -158 -198 -183 -226 -25 -27 -82 -97 -126 -155 -43 -57 -175 -224 -292
-371 -117 -147 -213 -270 -213 -273 0 -3 177 -5 393 -5 l392 0 215 272 c118
149 222 283 231 297 9 14 32 42 50 61 41 43 322 394 417 521 39 52 99 129 134
171 216 263 275 338 378 473 62 83 117 152 122 153 10 5 11 42 0 42 -8 0 -150
177 -277 345 -37 50 -93 119 -124 155 -66 75 -275 337 -341 425 -45 61 -240
303 -331 410 -28 33 -77 96 -110 140 -33 44 -131 169 -217 277 l-157 198 -387
0 c-290 0 -388 -3 -388 -12z"/>
</g>
</svg>
