<?xml version="1.0" encoding="UTF-8" standalone="no"?>
<svg
   data-name="Layer 1"
   width="643"
   height="447.57029"
   viewBox="0 0 643 447.57029"
   version="1.1"
   id="svg22"
   sodipodi:docname="seo.svg"
   inkscape:version="1.1.1 (3bf5ae0d25, 2021-09-20)"
   xmlns:inkscape="http://www.inkscape.org/namespaces/inkscape"
   xmlns:sodipodi="http://sodipodi.sourceforge.net/DTD/sodipodi-0.dtd"
   xmlns="http://www.w3.org/2000/svg"
   xmlns:svg="http://www.w3.org/2000/svg">
  <defs
     id="defs26" />
  <sodipodi:namedview
     id="namedview24"
     pagecolor="#505050"
     bordercolor="#eeeeee"
     borderopacity="1"
     inkscape:pageshadow="0"
     inkscape:pageopacity="0"
     inkscape:pagecheckerboard="0"
     showgrid="false"
     inkscape:zoom="1.2670628"
     inkscape:cx="430.52327"
     inkscape:cy="233.21654"
     inkscape:window-width="1920"
     inkscape:window-height="991"
     inkscape:window-x="-9"
     inkscape:window-y="-9"
     inkscape:window-maximized="1"
     inkscape:current-layer="svg22" />
  <path
     d="M891.62348,313.02059H308.47961a29.96193,29.96193,0,0,1-29.92806-29.92807V255.88519a29.96193,29.96193,0,0,1,29.92806-29.92807H891.62348a29.96193,29.96193,0,0,1,29.92807,29.92807v27.20733A29.96193,29.96193,0,0,1,891.62348,313.02059ZM308.47961,227.77094a28.14617,28.14617,0,0,0-28.11424,28.11425v27.20733a28.14617,28.14617,0,0,0,28.11424,28.11425H891.62348a28.14617,28.14617,0,0,0,28.11424-28.11425V255.88519a28.14617,28.14617,0,0,0-28.11424-28.11425Z"
     transform="translate(-278.55155 -225.95712)"
     fill="#3f3d56"
     id="path2" />
  <rect
     x="57.1354"
     y="26.30042"
     width="421.71368"
     height="34.46262"
     rx="17.23129"
     fill="#e6e6e6"
     id="rect4" />
  <rect
     x="107.92243"
     y="177.43018"
     width="421.71368"
     height="34.46262"
     rx="17.23129"
     fill="#66fcf1"
     id="rect6"
     style="fill:#1ab4f7;fill-opacity:1" />
  <rect
     x="107.92243"
     y="287.00423"
     width="421.71368"
     height="34.46262"
     rx="17.23129"
     fill="#e6e6e6"
     id="rect8" />
  <rect
     x="107.92243"
     y="396.57828"
     width="421.71368"
     height="34.46262"
     rx="17.23129"
     fill="#e6e6e6"
     id="rect10" />
  <path
     d="M864.86391,288.10449a2.71409,2.71409,0,0,1-3.7799.66654l-14.80667-10.30275a2.714,2.714,0,1,1,3.11336-4.44644l14.80667,10.30275A2.71408,2.71408,0,0,1,864.86391,288.10449Z"
     transform="translate(-278.55155 -225.95712)"
     fill="#66fcf1"
     id="path12"
     style="fill:#1ab4f7;fill-opacity:1" />
  <path
     d="M848.054,276.39907a19.26672,19.26672,0,1,1-4.73174-26.83326A19.28854,19.28854,0,0,1,848.054,276.39907Zm-27.61937-19.33883a14.45,14.45,0,1,0,20.12494-3.5488A14.46638,14.46638,0,0,0,820.43461,257.06024Z"
     transform="translate(-278.55155 -225.95712)"
     fill="#66fcf1"
     id="path14"
     style="fill:#1ab4f7;fill-opacity:1" />
  <path
     d="M874.84562,454.28942H325.25747a.90691.90691,0,1,1,0-1.81382H874.84562a.90691.90691,0,1,1,0,1.81382Z"
     transform="translate(-278.55155 -225.95712)"
     fill="#3f3d56"
     id="path16" />
  <path
     d="M874.84562,563.90864H325.25747a.90691.90691,0,0,1,0-1.81382H874.84562a.90691.90691,0,0,1,0,1.81382Z"
     transform="translate(-278.55155 -225.95712)"
     fill="#3f3d56"
     id="path18" />
  <path
     d="M874.84562,673.52741H325.25747a.90691.90691,0,0,1,0-1.81382H874.84562a.90691.90691,0,1,1,0,1.81382Z"
     transform="translate(-278.55155 -225.95712)"
     fill="#3f3d56"
     id="path20" />
</svg>
